<?xml version="1.0" encoding="iso-8859-1"?>
<!-- Generator: Adobe Illustrator 22.0.1, SVG Export Plug-In . SVG Version: 6.00 Build 0)  -->
<svg version="1.1" xmlns="http://www.w3.org/2000/svg" xmlns:xlink="http://www.w3.org/1999/xlink" x="0px" y="0px"
	 viewBox="0 0 128 128" style="enable-background:new 0 0 128 128;" xml:space="preserve">
<g id="_x36_">
	<path style="fill:#EDEFAF;" d="M7.904,18.741h112.191c3.085,0,5.61,2.524,5.61,5.61V35.57c0,3.085-2.524,5.61-5.61,5.61H7.904
		c-3.085,0-5.61-2.524-5.61-5.61l0-11.219C2.295,21.265,4.819,18.741,7.904,18.741z"/>
	<path style="fill:#1D252C;" d="M114.486,16.446H13.514C6.062,16.446,0,22.508,0,29.96s6.062,13.514,13.513,13.514h3.315v21.418
		c0,25.729,20.932,46.661,46.661,46.661s46.661-20.933,46.661-46.661V43.474h4.334c7.451,0,13.514-6.063,13.514-13.514
		S121.937,16.446,114.486,16.446z M105.562,64.892c0,23.198-18.873,42.072-42.072,42.072S21.418,88.09,21.418,64.892V43.474h84.143
		V64.892z M114.486,38.884H13.514c-4.921,0-8.924-4.003-8.924-8.925c0-4.921,4.003-8.924,8.924-8.924h100.972
		c4.921,0,8.925,4.003,8.925,8.924C123.41,34.881,119.407,38.884,114.486,38.884z M63.49,97.785
		c10.967,0,19.888-8.922,19.888-19.888c0-10.967-8.922-19.888-19.888-19.888s-19.888,8.922-19.888,19.888
		C43.602,88.862,52.523,97.785,63.49,97.785z M63.49,61.068c9.279,0,16.829,7.549,16.829,16.829S72.77,94.725,63.49,94.725
		s-16.829-7.549-16.829-16.829S54.211,61.068,63.49,61.068z M63.49,87.841c5.483,0,9.944-4.461,9.944-9.944
		s-4.461-9.944-9.944-9.944s-9.944,4.461-9.944,9.944S58.007,87.841,63.49,87.841z M63.49,71.012c3.796,0,6.884,3.088,6.884,6.884
		c0,3.796-3.088,6.884-6.884,6.884c-3.796,0-6.884-3.088-6.884-6.884C56.606,74.1,59.694,71.012,63.49,71.012z"/>
</g>
<g id="Layer_1">
</g>
</svg>
